<mxfile host="app.diagrams.net" agent="Mozilla/5.0 (Windows NT 10.0; Win64; x64) AppleWebKit/537.36 (KHTML, like Gecko) Chrome/138.0.0.0 Safari/537.36" version="28.0.4">
  <diagram name="Página-1" id="EtY8M8XM1qttdg--E7k6">
    <mxGraphModel grid="1" page="1" gridSize="10" guides="1" tooltips="1" connect="1" arrows="1" fold="1" pageScale="1" pageWidth="827" pageHeight="1169" math="0" shadow="0">
      <root>
        <mxCell id="0" />
        <mxCell id="1" parent="0" />
        <mxCell id="_g4VLBBb3SVvtiAlNp6E-8" style="rounded=0;orthogonalLoop=1;jettySize=auto;html=1;entryX=0;entryY=0.5;entryDx=0;entryDy=0;" edge="1" parent="1" source="_g4VLBBb3SVvtiAlNp6E-1" target="_g4VLBBb3SVvtiAlNp6E-2">
          <mxGeometry relative="1" as="geometry" />
        </mxCell>
        <mxCell id="_g4VLBBb3SVvtiAlNp6E-9" value="1. Seleccionar Recursos" style="edgeLabel;html=1;align=center;verticalAlign=middle;resizable=0;points=[];" vertex="1" connectable="0" parent="_g4VLBBb3SVvtiAlNp6E-8">
          <mxGeometry x="0.0188" y="1" relative="1" as="geometry">
            <mxPoint as="offset" />
          </mxGeometry>
        </mxCell>
        <mxCell id="_g4VLBBb3SVvtiAlNp6E-1" value=":Administrador" style="html=1;whiteSpace=wrap;" vertex="1" parent="1">
          <mxGeometry x="50" y="70" width="110" height="50" as="geometry" />
        </mxCell>
        <mxCell id="_g4VLBBb3SVvtiAlNp6E-10" style="rounded=0;orthogonalLoop=1;jettySize=auto;html=1;entryX=1;entryY=0.5;entryDx=0;entryDy=0;" edge="1" parent="1" source="_g4VLBBb3SVvtiAlNp6E-2" target="_g4VLBBb3SVvtiAlNp6E-3">
          <mxGeometry relative="1" as="geometry" />
        </mxCell>
        <mxCell id="_g4VLBBb3SVvtiAlNp6E-11" value="2. Enviar Recursos Seleccionados" style="edgeLabel;html=1;align=center;verticalAlign=middle;resizable=0;points=[];" vertex="1" connectable="0" parent="_g4VLBBb3SVvtiAlNp6E-10">
          <mxGeometry x="-0.0583" y="-3" relative="1" as="geometry">
            <mxPoint as="offset" />
          </mxGeometry>
        </mxCell>
        <mxCell id="_g4VLBBb3SVvtiAlNp6E-2" value=":UI_EventoFormulario" style="html=1;whiteSpace=wrap;" vertex="1" parent="1">
          <mxGeometry x="290" y="140" width="130" height="50" as="geometry" />
        </mxCell>
        <mxCell id="_g4VLBBb3SVvtiAlNp6E-12" style="rounded=0;orthogonalLoop=1;jettySize=auto;html=1;entryX=0;entryY=0.5;entryDx=0;entryDy=0;" edge="1" parent="1" source="_g4VLBBb3SVvtiAlNp6E-3" target="_g4VLBBb3SVvtiAlNp6E-4">
          <mxGeometry relative="1" as="geometry" />
        </mxCell>
        <mxCell id="_g4VLBBb3SVvtiAlNp6E-13" value="3. Validar Disponibilidad" style="edgeLabel;html=1;align=center;verticalAlign=middle;resizable=0;points=[];" vertex="1" connectable="0" parent="_g4VLBBb3SVvtiAlNp6E-12">
          <mxGeometry x="-0.0288" y="4" relative="1" as="geometry">
            <mxPoint as="offset" />
          </mxGeometry>
        </mxCell>
        <mxCell id="_g4VLBBb3SVvtiAlNp6E-14" style="rounded=0;orthogonalLoop=1;jettySize=auto;html=1;entryX=0.5;entryY=0;entryDx=0;entryDy=0;" edge="1" parent="1" source="_g4VLBBb3SVvtiAlNp6E-3" target="_g4VLBBb3SVvtiAlNp6E-5">
          <mxGeometry relative="1" as="geometry" />
        </mxCell>
        <mxCell id="_g4VLBBb3SVvtiAlNp6E-15" value="4. Guardar Asignaciones" style="edgeLabel;html=1;align=center;verticalAlign=middle;resizable=0;points=[];" vertex="1" connectable="0" parent="_g4VLBBb3SVvtiAlNp6E-14">
          <mxGeometry x="0.0549" y="-2" relative="1" as="geometry">
            <mxPoint as="offset" />
          </mxGeometry>
        </mxCell>
        <mxCell id="_g4VLBBb3SVvtiAlNp6E-16" style="rounded=0;orthogonalLoop=1;jettySize=auto;html=1;entryX=0.5;entryY=0;entryDx=0;entryDy=0;" edge="1" parent="1" source="_g4VLBBb3SVvtiAlNp6E-3" target="_g4VLBBb3SVvtiAlNp6E-7">
          <mxGeometry relative="1" as="geometry" />
        </mxCell>
        <mxCell id="_g4VLBBb3SVvtiAlNp6E-17" value="5. Notificar Asignación Exitosa" style="edgeLabel;html=1;align=center;verticalAlign=middle;resizable=0;points=[];" vertex="1" connectable="0" parent="_g4VLBBb3SVvtiAlNp6E-16">
          <mxGeometry x="-0.0767" y="-2" relative="1" as="geometry">
            <mxPoint x="2" y="35" as="offset" />
          </mxGeometry>
        </mxCell>
        <mxCell id="_g4VLBBb3SVvtiAlNp6E-3" value=":SistemaRecursosEventos" style="html=1;whiteSpace=wrap;" vertex="1" parent="1">
          <mxGeometry x="30" y="230" width="150" height="50" as="geometry" />
        </mxCell>
        <mxCell id="_g4VLBBb3SVvtiAlNp6E-4" value=":BD_Recursos&lt;span style=&quot;color: rgba(0, 0, 0, 0); font-family: monospace; font-size: 0px; text-align: start; text-wrap-mode: nowrap;&quot;&gt;%3CmxGraphModel%3E%3Croot%3E%3CmxCell%20id%3D%220%22%2F%3E%3CmxCell%20id%3D%221%22%20parent%3D%220%22%2F%3E%3CmxCell%20id%3D%222%22%20value%3D%22%3AAdministrador%22%20style%3D%22html%3D1%3BwhiteSpace%3Dwrap%3B%22%20vertex%3D%221%22%20parent%3D%221%22%3E%3CmxGeometry%20x%3D%2250%22%20y%3D%2270%22%20width%3D%22110%22%20height%3D%2250%22%20as%3D%22geometry%22%2F%3E%3C%2FmxCell%3E%3C%2Froot%3E%3C%2FmxGraphModel%3E&lt;/span&gt;" style="html=1;whiteSpace=wrap;" vertex="1" parent="1">
          <mxGeometry x="310" y="310" width="110" height="50" as="geometry" />
        </mxCell>
        <mxCell id="_g4VLBBb3SVvtiAlNp6E-5" value=":BD_RecursosEventos" style="html=1;whiteSpace=wrap;" vertex="1" parent="1">
          <mxGeometry x="220" y="420" width="130" height="50" as="geometry" />
        </mxCell>
        <mxCell id="_g4VLBBb3SVvtiAlNp6E-7" value=":Notificación" style="html=1;whiteSpace=wrap;" vertex="1" parent="1">
          <mxGeometry x="30" y="420" width="110" height="50" as="geometry" />
        </mxCell>
        <mxCell id="LB8kq1egW2-g5PO7RFnt-1" value="&lt;div&gt;La asignación de recursos se hace como parte del flujo de creación o edición de eventos.&lt;/div&gt;&lt;div&gt;Solo se asignan recursos disponibles.&lt;/div&gt;" style="html=1;whiteSpace=wrap;" vertex="1" parent="1">
          <mxGeometry x="450" y="200" width="110" height="150" as="geometry" />
        </mxCell>
      </root>
    </mxGraphModel>
  </diagram>
</mxfile>
